<?xml version="1.0" encoding="UTF-8"?>
<!-- Generator: https://ezgif.com/png-to-svg -->
<svg version="1.1" xmlns="http://www.w3.org/2000/svg" width="5000" height="1000">
<path d="M0 0 C1.58 -0 3.16 -0 4.74 -0 C9.09 -0.01 13.44 -0.01 17.8 -0 C22.54 -0 27.29 -0 32.04 -0.01 C40.4 -0.01 48.76 -0.01 57.11 -0.01 C69.62 -0.01 82.13 -0.01 94.64 -0.01 C115.97 -0.02 137.29 -0.02 158.61 -0.02 C180.22 -0.02 201.83 -0.02 223.44 -0.02 C224.82 -0.02 226.2 -0.02 227.58 -0.02 C233.13 -0.02 238.69 -0.03 244.24 -0.03 C259.9 -0.03 275.56 -0.03 291.22 -0.03 C291.94 -0.03 292.66 -0.03 293.4 -0.03 C334.22 -0.04 375.04 -0.04 415.86 -0.04 C422.1 -0.04 428.34 -0.04 434.58 -0.04 C436.14 -0.04 437.71 -0.04 439.27 -0.04 C474.37 -0.04 509.46 -0.04 544.56 -0.05 C552.39 -0.05 560.22 -0.05 568.06 -0.05 C569.22 -0.05 569.22 -0.05 570.41 -0.05 C575.13 -0.05 579.85 -0.05 584.57 -0.05 C586.93 -0.05 589.3 -0.05 591.66 -0.05 C628.41 -0.05 665.17 -0.05 701.92 -0.06 C702.73 -0.06 703.53 -0.06 704.35 -0.06 C755.39 -0.06 806.42 -0.06 857.46 -0.06 C859.97 -0.06 862.48 -0.06 864.99 -0.06 C882.62 -0.06 900.25 -0.06 917.88 -0.06 C922.94 -0.06 927.99 -0.06 933.05 -0.06 C937.27 -0.06 941.48 -0.06 945.7 -0.06 C1025.35 -0.06 1105.01 -0.06 1184.66 -0.07 C1185.92 -0.07 1185.92 -0.07 1187.2 -0.07 C1213.41 -0.07 1239.61 -0.08 1265.81 -0.08 C1292.7 -0.08 1319.59 -0.09 1346.48 -0.09 C1347.3 -0.09 1348.13 -0.09 1348.99 -0.09 C1400.83 -0.1 1452.67 -0.1 1504.51 -0.1 C1505.31 -0.1 1506.11 -0.1 1506.94 -0.1 C1542.1 -0.1 1577.26 -0.1 1612.42 -0.1 C1626.56 -0.1 1640.7 -0.1 1654.85 -0.1 C1657.19 -0.1 1659.54 -0.1 1661.88 -0.1 C1697.76 -0.1 1733.64 -0.1 1769.52 -0.11 C1770.68 -0.11 1770.68 -0.11 1771.86 -0.11 C1784.31 -0.11 1796.76 -0.11 1809.21 -0.12 C1844.54 -0.12 1879.88 -0.13 1915.21 -0.12 C1915.93 -0.12 1916.65 -0.12 1917.38 -0.12 C1933.02 -0.12 1948.66 -0.12 1964.3 -0.12 C1970.54 -0.12 1976.77 -0.12 1983.01 -0.12 C1983.69 -0.12 1984.37 -0.12 1985.07 -0.12 C2007.31 -0.12 2029.55 -0.12 2051.8 -0.13 C2072.97 -0.13 2094.15 -0.13 2115.33 -0.13 C2127.76 -0.12 2140.19 -0.12 2152.61 -0.13 C2160.86 -0.14 2169.11 -0.14 2177.35 -0.13 C2182.03 -0.12 2186.71 -0.12 2191.39 -0.13 C2195.64 -0.14 2199.89 -0.14 2204.13 -0.13 C2205.65 -0.12 2207.18 -0.13 2208.7 -0.13 C2225.83 -0.19 2240.42 1.12 2253.42 13.13 C2259.14 19.09 2262.03 25.28 2264.42 33.13 C2264.75 34.12 2265.08 35.11 2265.42 36.13 C2265.52 37.94 2265.56 39.76 2265.56 41.58 C2265.57 43.28 2265.57 43.28 2265.58 45.02 C2265.58 46.26 2265.58 47.51 2265.58 48.79 C2265.59 50.76 2265.59 50.76 2265.6 52.77 C2265.61 56.36 2265.62 59.96 2265.62 63.56 C2265.63 65.82 2265.63 68.07 2265.63 70.32 C2265.65 77.37 2265.66 84.42 2265.66 91.48 C2265.67 99.6 2265.68 107.73 2265.71 115.85 C2265.73 122.14 2265.74 128.43 2265.75 134.72 C2265.75 138.47 2265.75 142.22 2265.77 145.97 C2265.79 149.51 2265.79 153.04 2265.78 156.58 C2265.78 158.48 2265.79 160.38 2265.81 162.28 C2265.74 175.33 2262.27 185.78 2253.25 195.46 C2248.72 199.67 2244.15 202.81 2238.42 205.13 C2237 205.71 2237 205.71 2235.55 206.31 C2226.22 208.74 2216.42 208.27 2206.85 208.25 C2205.26 208.25 2203.68 208.26 2202.1 208.26 C2197.75 208.26 2193.4 208.26 2189.05 208.26 C2184.3 208.25 2179.55 208.26 2174.8 208.26 C2166.45 208.26 2158.09 208.26 2149.73 208.26 C2137.22 208.26 2124.71 208.26 2112.2 208.27 C2090.88 208.27 2069.56 208.27 2048.24 208.27 C2026.63 208.27 2005.02 208.27 1983.4 208.28 C1982.03 208.28 1980.65 208.28 1979.27 208.28 C1973.71 208.28 1968.16 208.28 1962.6 208.28 C1946.94 208.28 1931.28 208.28 1915.62 208.29 C1914.91 208.29 1914.19 208.29 1913.45 208.29 C1872.63 208.29 1831.81 208.29 1790.99 208.29 C1784.75 208.29 1778.51 208.29 1772.27 208.29 C1770.7 208.29 1769.14 208.29 1767.57 208.29 C1732.48 208.29 1697.38 208.3 1662.29 208.3 C1654.45 208.3 1646.62 208.3 1638.79 208.3 C1638.01 208.3 1637.24 208.3 1636.43 208.3 C1631.72 208.3 1627 208.3 1622.28 208.3 C1619.91 208.3 1617.55 208.3 1615.19 208.3 C1578.43 208.3 1541.68 208.31 1504.92 208.31 C1504.12 208.31 1503.32 208.31 1502.49 208.31 C1451.46 208.31 1400.42 208.31 1349.39 208.31 C1346.88 208.31 1344.37 208.31 1341.86 208.31 C1324.23 208.31 1306.59 208.31 1288.96 208.31 C1283.91 208.31 1278.85 208.31 1273.8 208.31 C1269.58 208.31 1265.36 208.31 1261.14 208.31 C1181.49 208.31 1101.84 208.31 1022.18 208.32 C1020.93 208.32 1020.93 208.32 1019.64 208.32 C993.44 208.33 967.23 208.33 941.03 208.33 C914.14 208.34 887.26 208.34 860.37 208.34 C859.54 208.34 858.71 208.34 857.86 208.34 C806.02 208.35 754.18 208.35 702.33 208.35 C701.53 208.35 700.73 208.35 699.91 208.35 C664.75 208.36 629.59 208.36 594.43 208.36 C580.29 208.36 566.14 208.36 552 208.36 C549.65 208.36 547.31 208.36 544.96 208.36 C509.08 208.36 473.21 208.36 437.33 208.36 C436.17 208.36 436.17 208.36 434.98 208.36 C422.54 208.36 410.09 208.37 397.64 208.37 C362.3 208.38 326.97 208.38 291.63 208.38 C290.92 208.38 290.2 208.38 289.46 208.38 C273.82 208.38 258.19 208.38 242.55 208.37 C236.31 208.37 230.07 208.37 223.84 208.37 C223.16 208.37 222.48 208.37 221.78 208.37 C199.53 208.37 177.29 208.37 155.05 208.38 C133.87 208.39 112.69 208.39 91.51 208.38 C79.09 208.37 66.66 208.38 54.23 208.38 C45.99 208.39 37.74 208.39 29.49 208.38 C24.82 208.38 20.14 208.38 15.46 208.38 C11.21 208.39 6.96 208.39 2.71 208.38 C1.19 208.38 -0.33 208.38 -1.85 208.38 C-18.98 208.44 -33.58 207.13 -46.58 195.13 C-52.29 189.16 -55.19 182.97 -57.58 175.13 C-57.91 174.14 -58.24 173.15 -58.58 172.13 C-58.67 170.31 -58.71 168.49 -58.72 166.67 C-58.72 165.54 -58.73 164.4 -58.73 163.23 C-58.74 161.99 -58.74 160.74 -58.74 159.46 C-58.74 158.15 -58.75 156.84 -58.75 155.49 C-58.77 151.89 -58.77 148.29 -58.78 144.69 C-58.78 142.44 -58.78 140.19 -58.79 137.93 C-58.8 130.88 -58.81 123.83 -58.82 116.78 C-58.82 108.65 -58.84 100.53 -58.87 92.4 C-58.89 86.11 -58.9 79.82 -58.9 73.53 C-58.9 69.78 -58.91 66.03 -58.92 62.28 C-58.94 58.74 -58.94 55.21 -58.93 51.67 C-58.93 49.77 -58.95 47.87 -58.96 45.97 C-58.9 32.92 -55.43 22.47 -46.4 12.79 C-41.88 8.58 -37.31 5.44 -31.58 3.13 C-30.63 2.73 -29.68 2.34 -28.7 1.94 C-19.37 -0.49 -9.57 -0.02 0 0 Z M-14.58 45.13 C-14.67 58.47 -14.74 71.81 -14.78 85.16 C-14.81 91.35 -14.83 97.55 -14.88 103.74 C-14.92 109.72 -14.95 115.7 -14.96 121.68 C-14.96 123.96 -14.98 126.24 -15 128.52 C-15.03 131.72 -15.03 134.91 -15.03 138.1 C-15.05 139.05 -15.06 139.99 -15.07 140.97 C-15.05 145.18 -14.98 147.49 -12.71 151.13 C-10.57 153.19 -10.57 153.19 -8.08 155.13 C-5.46 157.22 -3.64 159.5 -1.58 162.13 C9.67 167.75 32.64 166.51 44.42 163.13 C55.72 157.63 64.44 146.3 71.42 136.13 C71.42 135.8 71.42 135.47 71.42 135.13 C52.28 135.13 33.14 135.13 13.42 135.13 C13.42 105.43 13.42 75.73 13.42 45.13 C4.18 45.13 -5.06 45.13 -14.58 45.13 Z M90.42 45.13 C90.42 75.16 90.42 105.19 90.42 136.13 C89.76 136.13 89.1 136.13 88.42 136.13 C87.08 137.79 85.75 139.46 84.42 141.13 C82.76 142.46 81.09 143.79 79.42 145.13 C78.76 145.95 78.1 146.78 77.42 147.63 C75.32 150.26 73.04 152.03 70.42 154.13 C69.06 155.77 67.72 157.43 66.42 159.13 C65.42 160.13 64.42 161.13 63.42 162.13 C63.42 162.46 63.42 162.79 63.42 163.13 C69 163.48 74.58 163.73 80.17 163.9 C82.06 163.97 83.96 164.06 85.85 164.18 C88.6 164.36 91.33 164.43 94.09 164.49 C95.32 164.6 95.32 164.6 96.59 164.71 C103.86 164.72 108.89 160.62 113.84 155.7 C121.47 146.83 120.16 136.06 119.79 125.01 C119.76 122.7 119.74 120.39 119.73 118.07 C119.68 112.03 119.54 105.99 119.38 99.95 C119.24 93.77 119.18 87.59 119.11 81.41 C118.96 69.31 118.71 57.22 118.42 45.13 C109.18 45.13 99.94 45.13 90.42 45.13 Z M132.42 45.13 C132.31 47.19 132.24 49.25 132.17 51.31 C132.13 52.46 132.08 53.61 132.03 54.79 C132.62 59.8 135.1 62.07 138.92 65.13 C141.55 67.23 143.33 69.51 145.42 72.13 C146.25 72.79 147.07 73.45 147.92 74.13 C150.55 76.23 152.33 78.51 154.42 81.13 C155.25 81.79 156.07 82.45 156.92 83.13 C159.55 85.23 161.33 87.51 163.42 90.13 C164.25 90.79 165.07 91.45 165.92 92.13 C168.55 94.23 170.33 96.51 172.42 99.13 C173.25 99.79 174.07 100.45 174.92 101.13 C177.55 103.23 179.33 105.51 181.42 108.13 C182.25 108.79 183.07 109.45 183.92 110.13 C186.55 112.23 188.33 114.51 190.42 117.13 C191.25 117.79 192.07 118.45 192.92 119.13 C195.55 121.23 197.33 123.51 199.42 126.13 C200.25 126.79 201.07 127.45 201.92 128.13 C204.55 130.23 206.33 132.51 208.42 135.13 C209.25 135.79 210.07 136.45 210.92 137.13 C213.55 139.23 215.33 141.51 217.42 144.13 C218.25 144.79 219.07 145.45 219.92 146.13 C222.55 148.23 224.33 150.51 226.42 153.13 C227.25 153.79 228.07 154.45 228.92 155.13 C231.54 157.22 233.36 159.5 235.42 162.13 C244.37 166.6 255.42 163.13 265.42 163.13 C265.42 124.19 265.42 85.25 265.42 45.13 C256.18 45.13 246.94 45.13 237.42 45.13 C237.42 69.88 237.42 94.63 237.42 120.13 C232.2 115.56 227.39 111.15 222.73 106.09 C221.45 104.71 220.17 103.34 218.89 101.97 C218.23 101.25 217.56 100.53 216.87 99.79 C212.51 95.14 208.09 90.55 203.67 85.95 C199.81 81.94 195.99 77.9 192.22 73.79 C174.72 52.85 174.72 52.85 150.67 42.88 C144.47 42.76 138.42 43.61 132.42 45.13 Z M279.42 45.13 C279.42 84.07 279.42 123.01 279.42 163.13 C288.66 163.13 297.9 163.13 307.42 163.13 C307.42 124.19 307.42 85.25 307.42 45.13 C298.18 45.13 288.94 45.13 279.42 45.13 Z M377.42 51.63 C375.32 54.26 373.04 56.03 370.42 58.13 C369.76 58.95 369.1 59.78 368.42 60.63 C366.32 63.26 364.04 65.03 361.42 67.13 C360.76 67.95 360.1 68.78 359.42 69.63 C357.32 72.26 355.04 74.03 352.42 76.13 C351.43 77.36 351.43 77.36 350.42 78.63 C348.32 81.26 346.04 83.03 343.42 85.13 C342.76 85.95 342.1 86.78 341.42 87.63 C339.32 90.26 337.04 92.03 334.42 94.13 C333.76 94.95 333.1 95.78 332.42 96.63 C330.42 99.13 330.42 99.13 327.67 101.31 C326.93 101.91 326.19 102.51 325.42 103.13 C325.42 103.79 325.42 104.45 325.42 105.13 C327.09 106.47 328.75 107.8 330.42 109.13 C331.76 110.79 333.09 112.46 334.42 114.13 C335.66 115.12 335.66 115.12 336.92 116.13 C339.55 118.23 341.33 120.51 343.42 123.13 C344.25 123.79 345.07 124.45 345.92 125.13 C348.55 127.23 350.33 129.51 352.42 132.13 C353.25 132.79 354.07 133.45 354.92 134.13 C357.55 136.23 359.33 138.51 361.42 141.13 C362.25 141.79 363.07 142.45 363.92 143.13 C366.55 145.23 368.33 147.51 370.42 150.13 C371.25 150.79 372.07 151.45 372.92 152.13 C375.55 154.23 377.33 156.51 379.42 159.13 C383.31 162.87 385.68 163.62 391.04 163.52 C392.28 163.5 393.53 163.49 394.82 163.48 C396.11 163.44 397.4 163.41 398.74 163.38 C400.7 163.35 400.7 163.35 402.71 163.32 C405.95 163.27 409.19 163.21 412.42 163.13 C413.18 157.14 413.82 151.54 410.71 146.17 C408.21 143.3 405.59 140.72 402.8 138.13 C401.81 137.17 400.82 136.2 399.84 135.23 C397.26 132.71 394.65 130.24 392.03 127.77 C389.35 125.23 386.71 122.66 384.06 120.08 C378.89 115.06 373.67 110.08 368.42 105.13 C369.89 101.69 371.79 99.59 374.51 97.04 C375.35 96.24 376.19 95.45 377.05 94.63 C377.96 93.77 378.87 92.92 379.81 92.04 C381.72 90.21 383.62 88.37 385.53 86.53 C388.53 83.63 391.54 80.75 394.59 77.91 C396.58 76.05 398.55 74.18 400.5 72.28 C402.33 70.49 404.18 68.74 406.07 67.01 C409.87 63.25 412.18 60.76 412.98 55.36 C412.99 51.9 412.83 48.56 412.42 45.13 C407.86 45.02 403.3 44.94 398.74 44.88 C397.44 44.84 396.15 44.81 394.82 44.77 C393.57 44.76 392.32 44.75 391.04 44.74 C389.89 44.71 388.74 44.69 387.56 44.67 C382.72 45.37 380.39 47.91 377.42 51.63 Z M426.42 45.13 C426.31 47.19 426.24 49.25 426.17 51.31 C426.13 52.46 426.08 53.61 426.03 54.79 C426.62 59.8 429.1 62.07 432.92 65.13 C435.55 67.23 437.33 69.51 439.42 72.13 C440.25 72.79 441.07 73.45 441.92 74.13 C444.55 76.23 446.33 78.51 448.42 81.13 C449.25 81.79 450.07 82.45 450.92 83.13 C453.55 85.23 455.33 87.51 457.42 90.13 C458.25 90.79 459.07 91.45 459.92 92.13 C462.55 94.23 464.33 96.51 466.42 99.13 C467.25 99.79 468.07 100.45 468.92 101.13 C471.55 103.23 473.33 105.51 475.42 108.13 C476.25 108.79 477.07 109.45 477.92 110.13 C480.55 112.23 482.33 114.51 484.42 117.13 C485.25 117.79 486.07 118.45 486.92 119.13 C489.55 121.23 491.33 123.51 493.42 126.13 C494.25 126.79 495.07 127.45 495.92 128.13 C498.55 130.23 500.33 132.51 502.42 135.13 C503.25 135.79 504.07 136.45 504.92 137.13 C507.55 139.23 509.33 141.51 511.42 144.13 C512.25 144.79 513.07 145.45 513.92 146.13 C516.55 148.23 518.33 150.51 520.42 153.13 C521.25 153.79 522.07 154.45 522.92 155.13 C525.54 157.22 527.36 159.5 529.42 162.13 C538.37 166.6 549.42 163.13 559.42 163.13 C559.42 124.19 559.42 85.25 559.42 45.13 C550.18 45.13 540.94 45.13 531.42 45.13 C531.42 69.88 531.42 94.63 531.42 120.13 C526.2 115.56 521.39 111.15 516.73 106.09 C515.45 104.71 514.17 103.34 512.89 101.97 C512.23 101.25 511.56 100.53 510.87 99.79 C506.51 95.14 502.09 90.55 497.67 85.95 C493.81 81.94 489.99 77.9 486.22 73.79 C468.72 52.85 468.72 52.85 444.67 42.88 C438.47 42.76 432.42 43.61 426.42 45.13 Z M581.42 51.63 C579.33 54.24 577.05 56.07 574.42 58.13 C573.28 60.41 573.3 61.66 573.3 64.2 C573.3 65.05 573.3 65.91 573.3 66.78 C573.3 67.72 573.31 68.66 573.31 69.63 C573.31 70.61 573.31 71.6 573.31 72.61 C573.31 75.88 573.32 79.15 573.33 82.42 C573.33 84.68 573.33 86.94 573.33 89.2 C573.33 95.16 573.34 101.12 573.35 107.08 C573.36 113.16 573.37 119.24 573.37 125.32 C573.38 137.26 573.4 149.19 573.42 161.13 C573.87 160.74 574.31 160.35 574.77 159.96 C578.33 156.89 581.94 153.94 585.65 151.07 C593.97 144.16 601.4 137.83 603.13 126.7 C603.68 119.24 603.38 111.86 602.86 104.41 C602.65 100.87 602.55 97.33 602.45 93.78 C602.23 86.89 601.87 80.01 601.42 73.13 C602.76 73.22 602.76 73.22 604.13 73.31 C615.32 74.03 626.52 74.52 637.74 74.81 C639.05 74.85 639.05 74.85 640.4 74.88 C667.16 76.27 667.16 76.27 690.55 65.36 C696.23 59.77 700.91 53.28 704.42 46.13 C704.42 45.8 704.42 45.47 704.42 45.13 C689.38 45.03 674.35 44.96 659.31 44.92 C652.33 44.9 645.34 44.87 638.36 44.82 C631.62 44.78 624.89 44.76 618.15 44.75 C615.58 44.74 613.01 44.73 610.43 44.7 C606.84 44.67 603.24 44.67 599.64 44.67 C598.04 44.65 598.04 44.65 596.41 44.63 C589.18 44.67 586.03 45.87 581.42 51.63 Z M720.42 45.13 C720.42 73.51 720.42 101.89 720.42 131.13 C722.73 129.15 725.04 127.17 727.42 125.13 C729.16 124.06 730.92 123.02 732.7 122.02 C739.76 117.26 745.62 112.34 748.42 104.13 C751.86 85.17 749.58 64.19 748.42 45.13 C739.18 45.13 729.94 45.13 720.42 45.13 Z M818.42 51.63 C816.32 54.26 814.04 56.03 811.42 58.13 C810.43 59.36 810.43 59.36 809.42 60.63 C807.32 63.26 805.04 65.03 802.42 67.13 C801.76 67.95 801.1 68.78 800.42 69.63 C798.32 72.26 796.04 74.03 793.42 76.13 C792.76 76.95 792.1 77.78 791.42 78.63 C789.32 81.26 787.04 83.03 784.42 85.13 C783.76 85.95 783.1 86.78 782.42 87.63 C780.32 90.26 778.04 92.03 775.42 94.13 C774.76 94.95 774.1 95.78 773.42 96.63 C771.32 99.26 769.04 101.03 766.42 103.13 C765.76 103.95 765.1 104.78 764.42 105.63 C762.32 108.26 760.04 110.03 757.42 112.13 C756.76 112.95 756.1 113.78 755.42 114.63 C753.32 117.26 751.04 119.03 748.42 121.13 C747.76 121.95 747.1 122.78 746.42 123.63 C744.32 126.26 742.04 128.03 739.42 130.13 C738.76 130.95 738.1 131.78 737.42 132.63 C735.32 135.26 733.04 137.03 730.42 139.13 C729.76 139.95 729.1 140.78 728.42 141.63 C726.33 144.24 724.05 146.07 721.42 148.13 C719.98 151.01 720.33 153.54 720.36 156.75 C720.37 157.94 720.38 159.13 720.39 160.35 C720.4 161.27 720.41 162.18 720.42 163.13 C732.72 165.05 745.41 166.57 756.05 159.19 C762.34 154.23 767.87 148.39 773.36 142.59 C776.15 139.67 779.02 136.83 781.88 133.97 C786.65 129.18 791.36 124.34 796.04 119.46 C801.44 113.84 806.9 108.29 812.42 102.78 C818.32 96.88 824.18 90.93 830.01 84.96 C831.68 83.25 833.37 81.56 835.05 79.87 C837.7 77.2 840.3 74.5 842.89 71.78 C844.28 70.32 845.71 68.89 847.15 67.47 C852.08 62.17 853.96 58.79 853.99 51.43 C853.85 49.33 853.67 47.22 853.42 45.13 C848.86 45.02 844.3 44.94 839.74 44.88 C838.44 44.84 837.15 44.81 835.82 44.77 C834.57 44.76 833.32 44.75 832.04 44.74 C830.89 44.71 829.74 44.69 828.56 44.67 C823.72 45.37 821.39 47.91 818.42 51.63 Z M878.42 51.63 C876.32 54.26 874.04 56.03 871.42 58.13 C870.43 59.36 870.43 59.36 869.42 60.63 C867.32 63.26 865.04 65.03 862.42 67.13 C861.76 67.95 861.1 68.78 860.42 69.63 C858.32 72.26 856.04 74.03 853.42 76.13 C852.76 76.95 852.1 77.78 851.42 78.63 C849.32 81.26 847.04 83.03 844.42 85.13 C843.76 85.95 843.1 86.78 842.42 87.63 C840.32 90.26 838.04 92.03 835.42 94.13 C834.76 94.95 834.1 95.78 833.42 96.63 C831.32 99.26 829.04 101.03 826.42 103.13 C825.76 103.95 825.1 104.78 824.42 105.63 C822.32 108.26 820.04 110.03 817.42 112.13 C816.76 112.95 816.1 113.78 815.42 114.63 C813.32 117.26 811.04 119.03 808.42 121.13 C807.76 121.95 807.1 122.78 806.42 123.63 C804.32 126.26 802.04 128.03 799.42 130.13 C798.76 130.95 798.1 131.78 797.42 132.63 C795.32 135.26 793.04 137.03 790.42 139.13 C789.76 139.95 789.1 140.78 788.42 141.63 C786.33 144.24 784.05 146.07 781.42 148.13 C779.98 151.01 780.33 153.54 780.36 156.75 C780.37 157.94 780.38 159.13 780.39 160.35 C780.4 161.27 780.41 162.18 780.42 163.13 C792.72 165.05 805.41 166.57 816.05 159.19 C822.34 154.23 827.87 148.39 833.36 142.59 C836.15 139.67 839.02 136.83 841.88 133.97 C846.65 129.18 851.36 124.34 856.04 119.46 C861.44 113.84 866.9 108.29 872.42 102.78 C878.32 96.88 884.18 90.93 890.01 84.96 C891.68 83.25 893.37 81.56 895.05 79.87 C897.7 77.2 900.3 74.5 902.89 71.78 C904.28 70.32 905.71 68.89 907.15 67.47 C912.08 62.17 913.96 58.79 913.99 51.43 C913.85 49.33 913.67 47.22 913.42 45.13 C908.86 45.02 904.3 44.94 899.74 44.88 C898.44 44.84 897.15 44.81 895.82 44.77 C894.57 44.76 893.32 44.75 892.04 44.74 C890.89 44.71 889.74 44.69 888.56 44.67 C883.72 45.37 881.39 47.91 878.42 51.63 Z M927.42 45.13 C926.71 51.06 926.11 56.67 929 62.08 C931.36 64.99 933.86 67.62 936.51 70.26 C937.49 71.29 938.47 72.31 939.44 73.34 C942.08 76.11 944.77 78.83 947.47 81.55 C949.16 83.25 950.84 84.96 952.52 86.68 C958.4 92.7 964.31 98.67 970.26 104.62 C975.77 110.12 981.19 115.7 986.58 121.32 C991.24 126.17 995.96 130.96 1000.71 135.72 C1003.54 138.54 1006.35 141.39 1009.1 144.29 C1011.69 147.04 1014.36 149.7 1017.08 152.32 C1018.5 153.72 1019.86 155.2 1021.21 156.68 C1033.03 167.73 1042.55 163.13 1060.42 163.13 C1060.42 124.19 1060.42 85.25 1060.42 45.13 C1051.18 45.13 1041.94 45.13 1032.42 45.13 C1032.42 69.88 1032.42 94.63 1032.42 120.13 C1027.2 115.56 1022.39 111.15 1017.73 106.09 C1016.45 104.71 1015.17 103.34 1013.89 101.97 C1013.23 101.25 1012.56 100.53 1011.87 99.79 C1007.51 95.14 1003.09 90.55 998.67 85.95 C994.81 81.94 990.99 77.9 987.22 73.79 C969.72 52.85 969.72 52.85 945.67 42.88 C939.44 42.75 933.46 43.69 927.42 45.13 Z M1076.69 54.6 C1071.73 63.19 1072.73 73.24 1073.06 82.81 C1073.08 85.07 1073.1 87.34 1073.12 89.61 C1073.17 95.53 1073.31 101.45 1073.46 107.37 C1073.61 113.43 1073.67 119.49 1073.74 125.55 C1073.89 137.41 1074.13 149.27 1074.42 161.13 C1074.92 160.14 1074.92 160.14 1075.42 159.13 C1076.91 158.63 1076.91 158.63 1078.42 158.13 C1078.42 157.47 1078.42 156.81 1078.42 156.13 C1079.91 155.63 1079.91 155.63 1081.42 155.13 C1081.42 154.47 1081.42 153.81 1081.42 153.13 C1082.91 152.63 1082.91 152.63 1084.42 152.13 C1084.42 151.47 1084.42 150.81 1084.42 150.13 C1085.91 149.63 1085.91 149.63 1087.42 149.13 C1087.42 148.47 1087.42 147.81 1087.42 147.13 C1088.91 146.63 1088.91 146.63 1090.42 146.13 C1090.42 145.47 1090.42 144.81 1090.42 144.13 C1091.91 143.63 1091.91 143.63 1093.42 143.13 C1093.42 142.47 1093.42 141.81 1093.42 141.13 C1094.91 140.63 1094.91 140.63 1096.42 140.13 C1096.42 139.47 1096.42 138.81 1096.42 138.13 C1097.91 137.63 1097.91 137.63 1099.42 137.13 C1099.42 136.47 1099.42 135.81 1099.42 135.13 C1100.91 134.63 1100.91 134.63 1102.42 134.13 C1102.42 114 1102.42 93.87 1102.42 73.13 C1110.49 73.16 1110.49 73.16 1118.72 73.2 C1122.13 73.21 1125.53 73.22 1128.94 73.22 C1134.34 73.24 1139.75 73.25 1145.15 73.28 C1149.51 73.3 1153.87 73.31 1158.22 73.32 C1159.89 73.32 1161.55 73.33 1163.22 73.34 C1165.54 73.35 1167.87 73.35 1170.2 73.35 C1170.89 73.36 1171.58 73.37 1172.29 73.38 C1175.91 73.36 1177.32 73.2 1180.42 71.13 C1180.42 70.47 1180.42 69.81 1180.42 69.13 C1181.41 68.8 1182.4 68.47 1183.42 68.13 C1183.42 67.47 1183.42 66.81 1183.42 66.13 C1184.41 65.8 1185.4 65.47 1186.42 65.13 C1186.42 64.47 1186.42 63.81 1186.42 63.13 C1187.41 62.8 1188.4 62.47 1189.42 62.13 C1189.42 61.47 1189.42 60.81 1189.42 60.13 C1190.41 59.8 1191.4 59.47 1192.42 59.13 C1192.42 58.47 1192.42 57.81 1192.42 57.13 C1193.41 56.8 1194.4 56.47 1195.42 56.13 C1195.42 55.47 1195.42 54.81 1195.42 54.13 C1196.41 53.8 1197.4 53.47 1198.42 53.13 C1198.42 52.47 1198.42 51.81 1198.42 51.13 C1199.41 50.8 1200.4 50.47 1201.42 50.13 C1201.42 49.47 1201.42 48.81 1201.42 48.13 C1202.41 47.8 1203.4 47.47 1204.42 47.13 C1204.42 46.47 1204.42 45.81 1204.42 45.13 C1189.54 44.8 1174.66 44.55 1159.77 44.4 C1152.86 44.33 1145.95 44.23 1139.04 44.07 C1132.36 43.91 1125.68 43.83 1119 43.8 C1116.46 43.77 1113.92 43.72 1111.39 43.65 C1091.64 43.03 1091.64 43.03 1076.69 54.6 Z M1221.42 45.13 C1221.42 83.08 1221.42 121.03 1221.42 160.13 C1225.17 158.88 1226 157.19 1228.42 154.13 C1230.09 152.79 1231.76 151.46 1233.42 150.13 C1234.08 149.3 1234.74 148.48 1235.42 147.63 C1237.53 145 1239.8 143.22 1242.42 141.13 C1243.79 139.48 1245.12 137.82 1246.42 136.13 C1246.95 135.74 1247.48 135.35 1248.03 134.95 C1250.23 132.06 1249.74 128.91 1249.61 125.44 C1249.59 124.39 1249.59 124.39 1249.57 123.31 C1249.53 121.58 1249.48 119.85 1249.42 118.13 C1255.86 117.91 1262.29 117.81 1268.73 117.78 C1270.92 117.76 1273.1 117.72 1275.29 117.64 C1295.37 117 1295.37 117 1303.05 124.13 C1306.23 127.52 1309.33 130.94 1311.42 135.13 C1310.17 134.99 1308.92 134.84 1307.63 134.7 C1281.92 131.31 1281.92 131.31 1258.41 139.37 C1250.69 145.88 1244.06 153.76 1238.42 162.13 C1238.42 162.46 1238.42 162.79 1238.42 163.13 C1276.7 163.13 1314.98 163.13 1354.42 163.13 C1357.34 137.7 1357.34 137.7 1350.42 130.13 C1349.6 129.47 1348.77 128.81 1347.92 128.13 C1345.29 126.02 1343.52 123.75 1341.42 121.13 C1340.6 120.47 1339.77 119.81 1338.92 119.13 C1336.29 117.02 1334.52 114.75 1332.42 112.13 C1330.77 110.78 1329.1 109.44 1327.42 108.13 C1327.09 107.47 1326.76 106.81 1326.42 106.13 C1325.76 106.13 1325.1 106.13 1324.42 106.13 C1324.42 104.81 1324.42 103.49 1324.42 102.13 C1325.08 102.13 1325.74 102.13 1326.42 102.13 C1327.76 100.46 1329.09 98.8 1330.42 97.13 C1332.92 95.13 1332.92 95.13 1335.42 93.13 C1336.08 92.3 1336.74 91.48 1337.42 90.63 C1339.53 88 1341.8 86.22 1344.42 84.13 C1345.08 83.3 1345.74 82.48 1346.42 81.63 C1348.52 79.01 1350.79 77.19 1353.42 75.13 C1354.83 72.31 1354.53 69.95 1354.52 66.81 C1354.52 65.55 1354.51 64.29 1354.51 63 C1354.5 61.68 1354.49 60.36 1354.49 59 C1354.48 57.66 1354.48 56.32 1354.47 54.98 C1354.46 51.7 1354.44 48.41 1354.42 45.13 C1345.75 43.98 1345.75 43.98 1337.79 46.83 C1335.36 49.34 1333.22 51.95 1331.08 54.72 C1329.37 56.73 1327.65 58.73 1325.93 60.73 C1325.49 61.24 1325.05 61.76 1324.59 62.3 C1300.67 90.36 1300.67 90.36 1283.09 92.27 C1271.83 93.05 1260.53 91.99 1249.42 90.13 C1249.42 84.52 1249.42 78.91 1249.42 73.13 C1250.76 73.15 1252.1 73.17 1253.47 73.19 C1258.44 73.26 1263.41 73.31 1268.37 73.35 C1270.52 73.37 1272.67 73.39 1274.82 73.43 C1277.91 73.48 1281 73.5 1284.09 73.52 C1285.53 73.55 1285.53 73.55 1287 73.58 C1291.29 73.58 1293.72 73.56 1297.44 71.26 C1299.48 69.11 1299.48 69.11 1301.42 66.63 C1303.53 64 1305.8 62.22 1308.42 60.13 C1309.41 58.89 1309.41 58.89 1310.42 57.63 C1312.53 55 1314.8 53.22 1317.42 51.13 C1320.1 48.47 1320.1 48.47 1321.42 45.13 C1288.42 45.13 1255.42 45.13 1221.42 45.13 Z M1473.42 45.13 C1473.61 47.18 1473.8 49.23 1474 51.34 C1474.82 60.88 1475.28 70.43 1475.55 80 C1475.58 81.28 1475.58 81.28 1475.62 82.59 C1476.12 103.83 1475.21 121.4 1460.21 137.48 C1451.69 146.22 1442.01 153.95 1432.01 160.92 C1431.49 161.32 1430.96 161.72 1430.42 162.13 C1430.42 162.46 1430.42 162.79 1430.42 163.13 C1436.17 163.23 1441.92 163.3 1447.67 163.35 C1449.62 163.37 1451.57 163.39 1453.53 163.43 C1456.34 163.48 1459.15 163.5 1461.97 163.52 C1462.84 163.54 1463.71 163.56 1464.61 163.58 C1468.71 163.58 1470.84 163.49 1474.39 161.26 C1476.48 159.12 1476.48 159.12 1478.42 156.63 C1480.53 154 1482.8 152.22 1485.42 150.13 C1486.08 149.3 1486.74 148.48 1487.42 147.63 C1489.53 145 1491.8 143.22 1494.42 141.13 C1495.79 139.48 1497.12 137.82 1498.42 136.13 C1498.95 135.75 1499.48 135.38 1500.02 135 C1502.33 131.92 1501.81 128.4 1501.76 124.71 C1501.76 123.85 1501.76 122.99 1501.76 122.11 C1501.76 119.26 1501.74 116.42 1501.72 113.58 C1501.71 111.61 1501.71 109.65 1501.7 107.68 C1501.69 102.49 1501.66 97.31 1501.63 92.13 C1501.6 86.84 1501.58 81.55 1501.57 76.26 C1501.54 65.88 1501.48 55.5 1501.42 45.13 C1492.18 45.13 1482.94 45.13 1473.42 45.13 Z M1515.42 45.13 C1514.67 51.12 1514.03 56.71 1517.13 62.09 C1519.63 64.95 1522.26 67.54 1525.05 70.12 C1526.04 71.08 1527.02 72.05 1528.01 73.02 C1530.58 75.54 1533.2 78.02 1535.82 80.48 C1538.5 83.02 1541.14 85.6 1543.78 88.17 C1548.96 93.2 1554.18 98.18 1559.42 103.13 C1557.95 106.57 1556.06 108.67 1553.34 111.21 C1552.5 112.01 1551.66 112.8 1550.79 113.62 C1549.88 114.48 1548.98 115.33 1548.04 116.21 C1546.13 118.05 1544.22 119.88 1542.32 121.72 C1539.32 124.62 1536.31 127.5 1533.26 130.35 C1531.27 132.2 1529.3 134.08 1527.35 135.98 C1525.52 137.76 1523.66 139.52 1521.78 141.24 C1518.81 144.04 1518.81 144.04 1515.42 149.13 C1515.42 153.75 1515.42 158.37 1515.42 163.13 C1559.31 163.13 1603.2 163.13 1648.42 163.13 C1649.78 150.75 1649.78 150.75 1644.42 145.13 C1643.6 144.47 1642.77 143.81 1641.92 143.13 C1639.3 141.03 1637.48 138.76 1635.42 136.13 C1632.74 134.79 1630.69 135.01 1627.69 135.01 C1625.89 135.01 1625.89 135.01 1624.05 135.01 C1622.75 135.02 1621.44 135.02 1620.1 135.03 C1618.76 135.03 1617.42 135.03 1616.08 135.03 C1612.54 135.04 1609.01 135.05 1605.47 135.06 C1601.87 135.07 1598.26 135.07 1594.65 135.08 C1587.58 135.09 1580.5 135.11 1573.42 135.13 C1573.42 134.14 1573.42 133.15 1573.42 132.13 C1574.08 132.13 1574.74 132.13 1575.42 132.13 C1576.76 130.46 1578.09 128.8 1579.42 127.13 C1581.07 125.76 1582.73 124.43 1584.42 123.13 C1586.2 121.61 1586.2 121.61 1587.42 120.13 C1587.42 119.47 1587.42 118.81 1587.42 118.13 C1602.6 118.13 1617.78 118.13 1633.42 118.13 C1633.42 108.89 1633.42 99.65 1633.42 90.13 C1618.24 90.13 1603.06 90.13 1587.42 90.13 C1587.42 89.47 1587.42 88.81 1587.42 88.13 C1585.76 86.79 1584.09 85.46 1582.42 84.13 C1581.09 82.46 1579.76 80.79 1578.42 79.13 C1577.6 78.47 1576.77 77.81 1575.92 77.13 C1573.29 75.02 1571.52 72.75 1569.42 70.13 C1568.6 69.47 1567.77 68.81 1566.92 68.13 C1564.29 66.02 1562.52 63.75 1560.42 61.13 C1559.6 60.47 1558.77 59.81 1557.92 59.13 C1555.29 57.02 1553.52 54.75 1551.42 52.13 C1549.78 50.76 1548.11 49.43 1546.42 48.13 C1546.01 47.6 1545.6 47.07 1545.17 46.53 C1542.53 44.41 1540.34 44.79 1537 44.83 C1535.75 44.84 1534.5 44.85 1533.21 44.86 C1531.24 44.9 1531.24 44.9 1529.24 44.94 C1527.9 44.95 1526.56 44.97 1525.23 44.98 C1521.96 45.02 1518.69 45.07 1515.42 45.13 Z M1562.42 45.13 C1564.4 47.44 1566.38 49.75 1568.42 52.13 C1569.65 53.87 1570.86 55.63 1572.06 57.4 C1578.22 65.54 1584.17 72.53 1594.63 74.15 C1600.56 74.77 1606.46 74.82 1612.42 74.69 C1613.91 74.66 1613.91 74.66 1615.44 74.63 C1618.31 74.55 1621.18 74.42 1624.05 74.26 C1624.92 74.21 1625.79 74.16 1626.68 74.12 C1631.78 73.7 1634.71 72.92 1638.42 69.13 C1639.08 68.3 1639.74 67.48 1640.42 66.63 C1642.52 64.01 1644.79 62.19 1647.42 60.13 C1649.66 55.64 1648.42 50.14 1648.42 45.13 C1620.04 45.13 1591.66 45.13 1562.42 45.13 Z M1664.5 69.69 C1658.3 81.95 1659.34 95.74 1660.43 109.03 C1660.73 113.12 1660.86 117.21 1661.01 121.3 C1661.31 129.26 1661.8 137.19 1662.42 145.13 C1666.17 143.88 1667 142.19 1669.42 139.13 C1671.09 137.79 1672.76 136.46 1674.42 135.13 C1675.08 134.3 1675.74 133.48 1676.42 132.63 C1678.53 130 1680.8 128.22 1683.42 126.13 C1684.79 124.48 1686.12 122.82 1687.42 121.13 C1687.95 120.73 1688.48 120.33 1689.02 119.92 C1691.22 117.1 1690.76 114.56 1690.72 111.05 C1690.71 110.03 1690.71 110.03 1690.7 108.98 C1690.69 106.8 1690.65 104.62 1690.61 102.44 C1690.6 100.96 1690.58 99.48 1690.57 98 C1690.54 94.37 1690.48 90.75 1690.42 87.13 C1691.08 87.13 1691.74 87.13 1692.42 87.13 C1693.76 85.46 1695.09 83.8 1696.42 82.13 C1698.07 80.76 1699.73 79.43 1701.42 78.13 C1703.2 76.61 1703.2 76.61 1704.42 75.13 C1704.42 74.47 1704.42 73.81 1704.42 73.13 C1705.83 73.14 1705.83 73.14 1707.27 73.15 C1716.15 73.23 1725.02 73.29 1733.89 73.33 C1738.45 73.35 1743.01 73.38 1747.57 73.43 C1751.98 73.47 1756.38 73.5 1760.78 73.51 C1762.46 73.51 1764.14 73.53 1765.82 73.55 C1768.17 73.58 1770.53 73.58 1772.88 73.58 C1773.57 73.59 1774.26 73.61 1774.98 73.62 C1779.74 73.58 1782.06 72.45 1785.42 69.13 C1786.08 68.3 1786.74 67.48 1787.42 66.63 C1789.52 64.01 1791.79 62.19 1794.42 60.13 C1795.86 57.24 1795.52 54.71 1795.49 51.5 C1795.48 50.31 1795.47 49.12 1795.46 47.9 C1795.45 46.98 1795.43 46.07 1795.42 45.13 C1782.37 44.45 1769.32 43.94 1756.25 43.62 C1750.17 43.47 1744.11 43.27 1738.04 42.94 C1708.45 41.36 1680.88 41.15 1664.5 69.69 Z M1809.42 45.13 C1809.42 54.37 1809.42 63.61 1809.42 73.13 C1824.27 73.13 1839.12 73.13 1854.42 73.13 C1854.42 102.83 1854.42 132.53 1854.42 163.13 C1863.66 163.13 1872.9 163.13 1882.42 163.13 C1882.42 133.43 1882.42 103.73 1882.42 73.13 C1892.32 73.13 1902.22 73.13 1912.42 73.13 C1917.17 69.63 1917.17 69.63 1919.42 66.63 C1921.52 64.01 1923.79 62.19 1926.42 60.13 C1928.66 55.64 1927.42 50.14 1927.42 45.13 C1888.48 45.13 1849.54 45.13 1809.42 45.13 Z M1941.42 45.13 C1941.42 73.18 1941.42 101.23 1941.42 130.13 C1945.17 128.88 1946 127.19 1948.42 124.13 C1950.09 122.79 1951.76 121.46 1953.42 120.13 C1954.08 119.3 1954.74 118.48 1955.42 117.63 C1957.53 115 1959.8 113.22 1962.42 111.13 C1963.79 109.48 1965.12 107.82 1966.42 106.13 C1966.95 105.7 1967.48 105.27 1968.02 104.83 C1970.04 102.38 1969.78 100.61 1969.76 97.46 C1969.76 96.3 1969.76 95.14 1969.76 93.94 C1969.75 92.69 1969.73 91.44 1969.72 90.15 C1969.71 88.22 1969.71 88.22 1969.7 86.26 C1969.69 82.85 1969.66 79.44 1969.63 76.03 C1969.6 72.56 1969.58 69.08 1969.57 65.6 C1969.54 58.77 1969.48 51.95 1969.42 45.13 C1960.18 45.13 1950.94 45.13 1941.42 45.13 Z M2021.48 65.67 C2018.69 68.59 2015.83 71.43 2012.97 74.28 C2008.2 79.07 2003.48 83.91 1998.8 88.79 C1993.41 94.42 1987.94 99.96 1982.43 105.47 C1976.52 111.37 1970.67 117.33 1964.83 123.3 C1963.16 125 1961.48 126.69 1959.8 128.39 C1957.15 131.05 1954.54 133.75 1951.96 136.48 C1950.56 137.94 1949.13 139.36 1947.7 140.78 C1942.76 146.09 1940.88 149.46 1940.85 156.82 C1941 158.93 1941.17 161.03 1941.42 163.13 C1945.99 163.24 1950.55 163.31 1955.11 163.38 C1956.4 163.41 1957.7 163.44 1959.03 163.48 C1960.28 163.49 1961.52 163.5 1962.81 163.52 C1963.96 163.54 1965.1 163.56 1966.28 163.58 C1971.12 162.88 1973.45 160.34 1976.42 156.63 C1978.53 154 1980.8 152.22 1983.42 150.13 C1984.08 149.3 1984.74 148.48 1985.42 147.63 C1987.53 145 1989.8 143.22 1992.42 141.13 C1993.08 140.3 1993.74 139.48 1994.42 138.63 C1996.53 136 1998.8 134.22 2001.42 132.13 C2002.08 131.3 2002.74 130.48 2003.42 129.63 C2005.53 127 2007.8 125.22 2010.42 123.13 C2011.08 122.3 2011.74 121.48 2012.42 120.63 C2014.53 118 2016.8 116.22 2019.42 114.13 C2020.08 113.3 2020.74 112.48 2021.42 111.63 C2023.53 109 2025.8 107.22 2028.42 105.13 C2029.08 104.3 2029.74 103.48 2030.42 102.63 C2032.53 100 2034.8 98.22 2037.42 96.13 C2038.08 95.3 2038.74 94.48 2039.42 93.63 C2041.53 91 2043.8 89.22 2046.42 87.13 C2047.08 86.3 2047.74 85.48 2048.42 84.63 C2050.53 82 2052.8 80.22 2055.42 78.13 C2056.08 77.3 2056.74 76.48 2057.42 75.63 C2059.53 73 2061.8 71.22 2064.42 69.13 C2065.08 68.3 2065.74 67.48 2066.42 66.63 C2068.52 64.01 2070.79 62.19 2073.42 60.13 C2074.86 57.24 2074.52 54.71 2074.49 51.5 C2074.48 50.31 2074.47 49.12 2074.46 47.9 C2074.45 46.98 2074.43 46.07 2074.42 45.13 C2049.61 41.24 2038.05 48.15 2021.48 65.67 Z M2088.42 59.13 C2087.1 63.82 2087.51 68.38 2088.42 73.13 C2097.85 73.22 2107.29 73.29 2116.72 73.33 C2121.1 73.35 2125.48 73.38 2129.86 73.43 C2134.08 73.47 2138.31 73.5 2142.54 73.51 C2144.15 73.51 2145.76 73.53 2147.37 73.55 C2149.63 73.58 2151.89 73.58 2154.15 73.58 C2155.44 73.59 2156.73 73.6 2158.05 73.61 C2163.06 72.89 2165.35 70.47 2168.42 66.63 C2170.53 64 2172.8 62.22 2175.42 60.13 C2176.41 58.89 2176.41 58.89 2177.42 57.63 C2179.53 55 2181.8 53.22 2184.42 51.13 C2187.1 48.47 2187.1 48.47 2188.42 45.13 C2177.45 44.8 2166.48 44.55 2155.51 44.4 C2150.41 44.33 2145.32 44.23 2140.22 44.07 C2135.29 43.92 2130.37 43.83 2125.44 43.8 C2123.57 43.77 2121.7 43.72 2119.83 43.65 C2106.11 43.11 2095.22 46.07 2088.42 59.13 Z M2202.23 50.06 C2201.67 50.63 2201.12 51.2 2200.54 51.78 C2199.97 52.35 2199.39 52.93 2198.8 53.52 C2197.59 54.74 2196.37 55.96 2195.16 57.18 C2193.3 59.06 2191.44 60.93 2189.57 62.8 C2188.39 63.98 2187.22 65.16 2186.04 66.34 C2185.48 66.9 2184.92 67.47 2184.34 68.05 C2181.65 70.23 2181.65 70.23 2180.42 73.13 C2184.71 73.13 2189 73.13 2193.42 73.13 C2193.42 78.74 2193.42 84.35 2193.42 90.13 C2191.5 89.81 2189.57 89.5 2187.59 89.18 C2172.27 87.35 2172.27 87.35 2158.3 92.76 C2149.67 99.71 2142.15 108.35 2135.42 117.13 C2135.42 117.46 2135.42 117.79 2135.42 118.13 C2144.59 118.22 2153.76 118.29 2162.94 118.33 C2167.19 118.35 2171.45 118.38 2175.71 118.43 C2179.82 118.47 2183.93 118.5 2188.04 118.51 C2189.61 118.51 2191.18 118.53 2192.75 118.55 C2194.94 118.58 2197.14 118.58 2199.34 118.58 C2201.21 118.59 2201.21 118.59 2203.13 118.61 C2208.08 117.89 2210.38 115.43 2213.42 111.63 C2215.42 109.13 2215.42 109.13 2218.01 107.63 C2221.77 103.73 2221.14 99.82 2221.09 94.6 C2221.09 93.57 2221.1 92.54 2221.1 91.48 C2221.1 89.31 2221.1 87.14 2221.07 84.96 C2221.05 81.64 2221.07 78.32 2221.11 74.99 C2221.1 72.88 2221.1 70.77 2221.09 68.66 C2221.1 67.66 2221.11 66.67 2221.12 65.64 C2221.13 60.05 2221.13 60.05 2218.01 55.63 C2217.16 55.13 2216.3 54.64 2215.42 54.13 C2214.06 52.48 2212.72 50.82 2211.42 49.13 C2209.9 47.35 2209.9 47.35 2208.42 46.13 C2205.41 46.13 2204.27 48.04 2202.23 50.06 Z M1189.03 76.24 C1179.66 85.7 1177.56 94.33 1177.53 107.48 C1177.75 116.73 1178.38 125.93 1179.42 135.13 C1178.72 135.07 1178.01 135.01 1177.29 134.94 C1168.4 134.22 1159.52 133.73 1150.61 133.44 C1149.91 133.42 1149.21 133.39 1148.48 133.37 C1125.83 132.58 1125.83 132.58 1106.35 142.89 C1100.55 148.61 1095.52 155.09 1091.42 162.13 C1091.42 162.46 1091.42 162.79 1091.42 163.13 C1104.54 163.17 1117.66 163.21 1130.77 163.23 C1136.86 163.24 1142.95 163.25 1149.04 163.28 C1154.92 163.3 1160.79 163.31 1166.67 163.32 C1168.91 163.32 1171.16 163.33 1173.4 163.34 C1176.54 163.35 1179.67 163.35 1182.81 163.35 C1184.21 163.36 1184.21 163.36 1185.64 163.38 C1186.49 163.37 1187.35 163.37 1188.23 163.37 C1188.97 163.37 1189.71 163.37 1190.48 163.37 C1192.75 163.23 1192.75 163.23 1195.42 161.13 C1195.42 160.47 1195.42 159.81 1195.42 159.13 C1196.41 158.8 1197.4 158.47 1198.42 158.13 C1198.42 157.47 1198.42 156.81 1198.42 156.13 C1199.41 155.8 1200.4 155.47 1201.42 155.13 C1201.42 154.47 1201.42 153.81 1201.42 153.13 C1202.41 152.8 1203.4 152.47 1204.42 152.13 C1204.42 151.47 1204.42 150.81 1204.42 150.13 C1205.41 149.8 1206.4 149.47 1207.42 149.13 C1207.42 120.42 1207.42 91.71 1207.42 62.13 C1201.92 62.13 1192.86 72.66 1189.03 76.24 Z M700.42 67.13 C699.76 67.95 699.1 68.78 698.42 69.63 C696.32 72.26 694.04 74.03 691.42 76.13 C690.43 77.36 690.43 77.36 689.42 78.63 C687.32 81.26 685.04 83.03 682.42 85.13 C679.13 88.19 678.15 90.44 677.97 94.82 C677.97 96.7 677.99 98.58 678.03 100.46 C678.04 101.95 678.04 101.95 678.05 103.46 C678.07 106.62 678.12 109.78 678.17 112.94 C678.19 115.08 678.21 117.23 678.23 119.37 C678.27 124.63 678.34 129.88 678.42 135.13 C677.31 135.11 677.31 135.11 676.18 135.1 C669.19 135.02 662.2 134.96 655.21 134.92 C651.62 134.9 648.03 134.87 644.43 134.82 C640.97 134.78 637.5 134.76 634.03 134.75 C632.06 134.74 630.1 134.7 628.14 134.67 C626.34 134.67 626.34 134.67 624.5 134.67 C623.44 134.66 622.39 134.65 621.3 134.65 C616.68 135.42 614.27 138.06 611.42 141.63 C609.32 144.26 607.04 146.03 604.42 148.13 C603.76 148.95 603.1 149.78 602.42 150.63 C600.32 153.26 598.04 155.03 595.42 157.13 C592.74 159.78 592.74 159.78 591.42 163.13 C604.35 163.45 617.27 163.7 630.2 163.85 C636.21 163.92 642.21 164.02 648.21 164.18 C654.02 164.34 659.82 164.42 665.62 164.45 C667.83 164.48 670.03 164.53 672.24 164.61 C686.47 165.11 686.47 165.11 698.95 159.05 C704.92 153.42 707.55 147.81 708.01 139.64 C708.07 136.07 707.94 132.52 707.79 128.95 C707.76 127.04 707.74 125.13 707.73 123.22 C707.68 118.25 707.54 113.27 707.38 108.3 C707.24 103.2 707.18 98.11 707.11 93.01 C706.96 83.05 706.72 73.09 706.42 63.13 C704.15 63.13 702.01 65.76 700.42 67.13 Z M132.42 77.13 C132.42 105.51 132.42 133.89 132.42 163.13 C141.66 163.13 150.9 163.13 160.42 163.13 C161.16 153.85 161.8 144.61 162.11 135.31 C162.13 134.64 162.16 133.96 162.18 133.26 C162.88 111.14 162.88 111.14 152.66 92.19 C146.92 86.38 140.44 81.3 133.42 77.13 C133.09 77.13 132.76 77.13 132.42 77.13 Z M426.42 77.13 C426.42 105.51 426.42 133.89 426.42 163.13 C435.66 163.13 444.9 163.13 454.42 163.13 C455.16 153.85 455.8 144.61 456.11 135.31 C456.13 134.64 456.16 133.96 456.18 133.26 C456.88 111.14 456.88 111.14 446.66 92.19 C440.92 86.38 434.44 81.3 427.42 77.13 C427.09 77.13 426.76 77.13 426.42 77.13 Z M927.42 77.13 C927.42 105.51 927.42 133.89 927.42 163.13 C936.66 163.13 945.9 163.13 955.42 163.13 C956.16 153.85 956.8 144.61 957.11 135.31 C957.13 134.64 957.16 133.96 957.18 133.26 C957.88 111.14 957.88 111.14 947.66 92.19 C941.92 86.38 935.44 81.3 928.42 77.13 C928.09 77.13 927.76 77.13 927.42 77.13 Z M2089.5 101.84 C2086.03 109.21 2087.04 117.6 2087.55 125.5 C2087.62 127.41 2087.68 129.32 2087.74 131.24 C2087.89 135.87 2088.13 140.5 2088.42 145.13 C2092.17 143.88 2093 142.19 2095.42 139.13 C2097.09 137.79 2098.76 136.46 2100.42 135.13 C2101.08 134.3 2101.74 133.48 2102.42 132.63 C2104.53 130 2106.8 128.22 2109.42 126.13 C2110.08 125.3 2110.74 124.48 2111.42 123.63 C2113.53 121 2115.8 119.22 2118.42 117.13 C2119.41 115.89 2119.41 115.89 2120.42 114.63 C2122.53 112 2124.8 110.22 2127.42 108.13 C2128.08 107.3 2128.74 106.48 2129.42 105.63 C2131.53 103 2133.8 101.22 2136.42 99.13 C2137.79 97.48 2139.12 95.82 2140.42 94.13 C2141.42 93.13 2142.42 92.13 2143.42 91.13 C2143.42 90.8 2143.42 90.47 2143.42 90.13 C2137.84 89.78 2132.27 89.52 2126.67 89.36 C2124.78 89.29 2122.89 89.19 2121 89.07 C2107.59 88.23 2097.15 89.71 2089.5 101.84 Z M1370.52 145.11 C1367.05 150.91 1367.17 156.56 1368.42 163.13 C1374.46 163.23 1380.49 163.3 1386.52 163.35 C1388.57 163.37 1390.62 163.39 1392.67 163.43 C1395.63 163.48 1398.58 163.5 1401.53 163.52 C1402.44 163.54 1403.36 163.56 1404.3 163.58 C1408.5 163.58 1410.78 163.53 1414.42 161.26 C1416.48 159.12 1416.48 159.12 1418.42 156.63 C1420.53 154 1422.8 152.22 1425.42 150.13 C1426.08 149.3 1426.74 148.48 1427.42 147.63 C1429.53 145 1431.8 143.22 1434.42 141.13 C1437.1 138.47 1437.1 138.47 1438.42 135.13 C1430.71 134.77 1422.99 134.53 1415.27 134.36 C1412.64 134.29 1410.02 134.19 1407.4 134.07 C1386.4 132.93 1386.4 132.93 1370.52 145.11 Z M1664.42 162.13 C1664.42 162.46 1664.42 162.79 1664.42 163.13 C1707.65 163.13 1750.88 163.13 1795.42 163.13 C1796.78 150.75 1796.78 150.75 1791.42 145.13 C1790.6 144.47 1789.77 143.81 1788.92 143.13 C1786.3 141.03 1784.48 138.76 1782.42 136.13 C1779.29 134.56 1775.9 134.76 1772.45 134.58 C1771.63 134.54 1770.8 134.5 1769.95 134.45 C1762.25 134.07 1754.55 133.83 1746.85 133.65 C1741.68 133.52 1736.53 133.34 1731.37 133.03 C1700.4 131.25 1682.47 135.65 1664.42 162.13 Z M2090.42 162.13 C2090.42 162.46 2090.42 162.79 2090.42 163.13 C2133.32 163.13 2176.22 163.13 2220.42 163.13 C2220.42 153.89 2220.42 144.65 2220.42 135.13 C2207.46 134.51 2194.51 134.02 2181.53 133.73 C2175.51 133.59 2169.49 133.4 2163.47 133.09 C2130.87 131.46 2109 132.97 2090.42 162.13 Z " fill="#FFFFFF" transform="translate(1402.577147781849,785.8735001683235)"/>
<path d="M0 0 C1.23 -0 1.23 -0 2.48 -0.01 C5.25 -0.01 8.02 -0 10.78 0.01 C12.78 0 14.77 0 16.77 0 C22.27 -0 27.77 0 33.27 0.01 C39.19 0.02 45.12 0.02 51.04 0.02 C61.98 0.02 72.92 0.02 83.86 0.04 C93.97 0.05 104.07 0.05 114.18 0.06 C114.85 0.06 115.52 0.06 116.2 0.06 C119.6 0.06 123 0.06 126.4 0.06 C150.49 0.06 174.58 0.08 198.67 0.1 C222.08 0.11 245.49 0.13 268.89 0.14 C269.61 0.14 270.34 0.14 271.08 0.14 C278.32 0.14 285.56 0.14 292.81 0.14 C307.56 0.15 322.32 0.16 337.07 0.16 C338.09 0.16 338.09 0.16 339.13 0.16 C384.45 0.18 429.77 0.21 475.09 0.25 C469.86 22.8 448.18 46.05 433.84 63.5 C433.27 64.2 432.7 64.89 432.11 65.61 C403.08 100.99 369.18 122.95 323.34 127.59 C281.78 131.57 239.88 130.84 198.21 129.62 C196.45 129.57 194.68 129.52 192.92 129.47 C146.9 128.14 100.99 125.72 55.09 122.25 C55.25 123.94 55.25 123.94 55.42 125.68 C58.85 161.46 61.15 197.29 62.45 233.21 C62.5 234.61 62.55 236 62.6 237.4 C67.29 363.4 67.29 363.4 22.85 412.38 C14.4 421.47 5.26 429.74 -4.16 437.81 C-5.22 438.72 -5.22 438.72 -6.3 439.65 C-21.08 452.35 -36.34 464.32 -52.53 475.15 C-53.09 475.52 -53.65 475.9 -54.23 476.28 C-63.18 482.25 -63.18 482.25 -67.91 482.25 C-68 428.57 -68.07 374.9 -68.12 321.22 C-68.12 314.89 -68.13 308.56 -68.13 302.22 C-68.13 300.96 -68.13 299.7 -68.14 298.4 C-68.15 277.97 -68.18 257.54 -68.22 237.11 C-68.26 216.16 -68.28 195.2 -68.29 174.25 C-68.29 161.31 -68.31 148.38 -68.34 135.44 C-68.37 126.58 -68.37 117.71 -68.37 108.85 C-68.36 103.73 -68.37 98.61 -68.39 93.49 C-68.41 88.81 -68.41 84.13 -68.4 79.45 C-68.39 77.75 -68.4 76.05 -68.41 74.36 C-68.43 72.05 -68.42 69.75 -68.4 67.45 C-68.41 66.17 -68.41 64.89 -68.41 63.57 C-67.52 57.63 -63.07 54.3 -58.91 50.25 C-57.67 48.98 -57.67 48.98 -56.41 47.68 C-54.02 45.35 -51.52 43.33 -48.91 41.25 C-46.39 38.85 -44.09 36.46 -41.91 33.75 C-39.74 31.04 -37.4 28.67 -34.91 26.25 C-34.09 25.4 -33.26 24.55 -32.41 23.68 C-30.02 21.35 -27.52 19.33 -24.91 17.25 C-22.39 14.85 -20.09 12.46 -17.91 9.75 C-12.47 2.94 -8.72 -0.06 0 0 Z " fill="#FFFFFF" transform="translate(2001.9123334884644,258.75390434265137)"/>
<path d="M0 0 C6.9 58.55 6.9 58.55 -10.47 81.09 C-17.27 89.26 -24.59 96.88 -32.17 104.33 C-37.17 109.24 -41.97 114.33 -46.77 119.43 C-56.74 129.99 -66.9 140.34 -77.16 150.62 C-85.1 158.58 -92.98 166.59 -100.84 174.64 C-103.12 176.98 -105.4 179.32 -107.68 181.65 C-108.25 182.23 -108.82 182.82 -109.4 183.41 C-125.33 199.72 -141.33 215.96 -157.47 232.07 C-158.07 232.67 -158.68 233.28 -159.3 233.9 C-162.37 236.96 -165.44 240.02 -168.51 243.08 C-169.12 243.69 -169.73 244.3 -170.36 244.93 C-171.59 246.15 -172.82 247.38 -174.05 248.61 C-193.15 267.66 -211.98 286.95 -230.63 306.44 C-251.71 328.49 -273.01 350.3 -294.61 371.84 C-296.93 374.15 -299.25 376.47 -301.57 378.79 C-302.14 379.36 -302.71 379.93 -303.3 380.52 C-311.22 388.43 -319 396.47 -326.68 404.62 C-339.58 418.3 -352.73 431.68 -366.46 444.54 C-366.98 445.02 -367.49 445.5 -368.02 446 C-402.37 478.12 -434.5 489.25 -481.11 487.85 C-501.86 487.11 -522.47 485.11 -543 482 C-549.9 423.45 -549.9 423.45 -532.53 400.91 C-525.73 392.74 -518.41 385.12 -510.83 377.67 C-505.83 372.76 -501.03 367.67 -496.23 362.57 C-486.26 352.01 -476.1 341.66 -465.84 331.38 C-457.9 323.42 -450.02 315.41 -442.16 307.36 C-439.88 305.02 -437.6 302.68 -435.32 300.35 C-434.47 299.48 -434.47 299.48 -433.6 298.59 C-417.67 282.28 -401.67 266.04 -385.53 249.93 C-384.93 249.33 -384.32 248.72 -383.7 248.1 C-380.63 245.04 -377.56 241.98 -374.49 238.92 C-373.88 238.31 -373.27 237.7 -372.64 237.07 C-371.41 235.85 -370.18 234.62 -368.95 233.39 C-349.85 214.34 -331.02 195.05 -312.37 175.56 C-291.29 153.51 -269.99 131.7 -248.39 110.16 C-246.07 107.85 -243.75 105.53 -241.43 103.21 C-240.86 102.64 -240.29 102.07 -239.7 101.48 C-231.78 93.57 -224 85.53 -216.32 77.38 C-203.42 63.7 -190.27 50.32 -176.54 37.46 C-176.02 36.98 -175.51 36.5 -174.98 36 C-123.45 -12.19 -66.53 -10.09 0 0 Z " fill="#FFFFFF" transform="translate(3065,259)"/>
<path d="M0 0 C1.36 45.24 2.39 90.47 3.01 135.72 C3.09 141.1 3.16 146.47 3.24 151.85 C3.26 153.45 3.26 153.45 3.29 155.09 C3.54 172.28 4.01 189.46 4.55 206.64 C5.11 224.36 5.43 242.07 5.55 259.79 C5.62 269.72 5.8 279.62 6.24 289.54 C7.9 328.13 7.05 363.47 -20.03 393.59 C-43 418.12 -68.27 427.26 -101.44 428.6 C-116.63 429.08 -131.79 428.69 -146.98 428.11 C-158.62 427.68 -170.26 427.6 -181.91 427.53 C-202.68 427.4 -223.42 427.01 -244.18 426.45 C-264.29 425.91 -284.4 425.49 -304.52 425.24 C-305.76 425.23 -307.01 425.21 -308.3 425.19 C-314.56 425.12 -320.82 425.04 -327.09 424.97 C-378.73 424.36 -430.37 423.33 -482 422 C-482 419 -482 419 -479.75 416.62 C-478.84 415.76 -477.93 414.89 -477 414 C-476.01 412.76 -476.01 412.76 -475 411.5 C-472.83 408.79 -470.48 406.42 -468 404 C-467.17 403.15 -466.35 402.31 -465.5 401.44 C-463.11 399.11 -460.61 397.08 -458 395 C-455.48 392.6 -453.17 390.22 -451 387.5 C-448.83 384.79 -446.48 382.42 -444 380 C-443.17 379.15 -442.35 378.31 -441.5 377.44 C-439.11 375.11 -436.61 373.08 -434 371 C-431.48 368.6 -429.17 366.22 -427 363.5 C-424.83 360.79 -422.48 358.42 -420 356 C-419.18 355.15 -418.35 354.31 -417.5 353.44 C-415.11 351.11 -412.61 349.08 -410 347 C-407.48 344.6 -405.17 342.22 -403 339.5 C-400.83 336.79 -398.48 334.42 -396 332 C-395.18 331.15 -394.35 330.31 -393.5 329.44 C-391.11 327.11 -388.61 325.08 -386 323 C-383.48 320.6 -381.17 318.22 -379 315.5 C-376.83 312.79 -374.48 310.42 -372 308 C-371.15 307.13 -370.31 306.27 -369.44 305.38 C-368.63 304.59 -367.83 303.81 -367 303 C-366.49 302.46 -365.98 301.93 -365.45 301.37 C-361.58 299.2 -357.77 299.6 -353.41 299.64 C-352.42 299.64 -351.44 299.63 -350.43 299.63 C-347.12 299.63 -343.82 299.64 -340.51 299.66 C-338.15 299.66 -335.78 299.66 -333.42 299.66 C-326.99 299.66 -320.56 299.67 -314.13 299.7 C-308.1 299.71 -302.06 299.72 -296.02 299.72 C-284.07 299.73 -272.11 299.75 -260.16 299.77 C-248.55 299.8 -236.93 299.82 -225.32 299.84 C-224.6 299.84 -223.89 299.84 -223.15 299.84 C-219.56 299.84 -215.97 299.85 -212.38 299.85 C-182.58 299.88 -152.79 299.93 -123 300 C-123 299.08 -123.01 298.15 -123.01 297.2 C-123.1 274.75 -123.17 252.3 -123.21 229.85 C-123.23 218.99 -123.26 208.14 -123.3 197.28 C-123.34 187.82 -123.37 178.36 -123.38 168.9 C-123.38 163.89 -123.39 158.87 -123.42 153.86 C-123.45 149.15 -123.46 144.43 -123.45 139.72 C-123.45 137.99 -123.46 136.25 -123.48 134.52 C-123.5 132.16 -123.49 129.8 -123.48 127.43 C-123.49 126.75 -123.5 126.06 -123.52 125.36 C-123.43 118.15 -118.87 114.75 -114 110 C-113.18 109.15 -112.35 108.31 -111.5 107.44 C-109.11 105.11 -106.61 103.08 -104 101 C-101.48 98.6 -99.17 96.22 -97 93.5 C-94.83 90.79 -92.48 88.42 -90 86 C-89.18 85.15 -88.35 84.31 -87.5 83.44 C-85.11 81.11 -82.61 79.08 -80 77 C-77.48 74.6 -75.17 72.22 -73 69.5 C-70.83 66.79 -68.48 64.42 -66 62 C-65.18 61.15 -64.35 60.31 -63.5 59.44 C-61.11 57.11 -58.61 55.08 -56 53 C-53.48 50.6 -51.17 48.22 -49 45.5 C-46.83 42.79 -44.48 40.42 -42 38 C-41.18 37.15 -40.35 36.31 -39.5 35.44 C-37.11 33.11 -34.61 31.08 -32 29 C-29.48 26.6 -27.17 24.22 -25 21.5 C-22.83 18.79 -20.48 16.42 -18 14 C-17.18 13.15 -16.35 12.31 -15.5 11.44 C-13.11 9.11 -10.61 7.08 -8 5 C-7.13 4.09 -6.27 3.19 -5.38 2.25 C-3 0 -3 0 0 0 Z " fill="#FFFFFF" transform="translate(2477,319)"/>
<path d="M0 0 C40.26 0 80.52 0 122 0 C122 118.8 122 237.6 122 360 C201.2 360 280.4 360 362 360 C360.49 366.03 356.65 370.36 352.97 375.29 C352.55 375.85 352.13 376.42 351.69 377.01 C315.43 425.47 271.61 481.28 208.4 490.54 C190.12 492.93 171.8 493.34 153.38 493.12 C148.36 493.06 143.35 493.1 138.34 493.16 C127.64 493.28 117.03 492.98 106.36 492.25 C102.81 492.01 99.28 491.87 95.72 491.83 C64.95 491.26 39.98 471.62 19.39 450.27 C-10.83 417.63 -7.7 376.93 -6.11 335.02 C-5.68 323.38 -5.6 311.74 -5.53 300.09 C-5.4 279.32 -5.01 258.58 -4.45 237.82 C-3.91 217.71 -3.49 197.6 -3.24 177.48 C-3.22 175.61 -3.22 175.61 -3.19 173.7 C-3.12 167.44 -3.04 161.18 -2.97 154.91 C-2.36 103.26 -1.28 51.64 0 0 Z " fill="#FFFFFF" transform="translate(1347,259)"/>
<path d="M0 0 C40.26 0 80.52 0 122 0 C123.31 52.88 124.39 105.75 125.01 158.65 C125.09 164.93 125.16 171.21 125.24 177.48 C125.26 179.36 125.26 179.36 125.29 181.27 C125.54 201.37 126.01 221.46 126.55 241.55 C127.11 262.25 127.43 282.94 127.55 303.65 C127.62 315.25 127.8 326.83 128.24 338.42 C131.22 419.34 131.22 419.34 102.81 450.48 C85.26 468.94 63.27 487.58 36.74 488.83 C31.14 488.9 25.63 488.49 20.06 487.98 C15.1 487.6 10.13 487.58 5.15 487.51 C-4.17 487.33 -13.45 486.85 -22.75 486.25 C-33.39 485.58 -44.02 485.26 -54.67 484.97 C-76.47 484.36 -98.23 483.33 -120 482 C-119.66 479.2 -119.15 478.14 -117.06 476.19 C-115.77 475.25 -115.77 475.25 -114.45 474.3 C-113.47 473.57 -112.49 472.85 -111.47 472.1 C-110.94 471.71 -110.41 471.32 -109.86 470.92 C-61.71 435.63 -2.28 390.14 7.45 327.8 C10.15 308.52 10.78 289.17 10.74 269.73 C10.74 268.74 10.74 267.76 10.74 266.75 C10.7 241.5 9.53 216.35 7.94 191.16 C7.04 176.56 6.45 161.96 6.05 147.33 C6.03 146.28 6 145.24 5.97 144.16 C5.83 138.92 5.7 133.67 5.56 128.43 C4.48 85.56 2.45 42.82 0 0 Z " fill="#FFFFFF" transform="translate(1767,259)"/>
<path d="M0 0 C1.16 0 2.31 0.01 3.51 0.01 C33.4 0.12 63.22 1.37 93.07 3.02 C110.39 3.97 127.71 4.61 145.06 5.04 C146.29 5.07 147.53 5.1 148.8 5.14 C155 5.29 161.21 5.44 167.41 5.59 C218.23 6.79 268.95 8.96 319.73 11.52 C319.73 51.78 319.73 92.04 319.73 133.52 C140.54 133.52 -38.65 133.52 -223.27 133.52 C-212.93 92.17 -152.11 39.79 -117.71 18.49 C-83.41 -1.71 -38.56 -0.14 0 0 Z " fill="#FFFFFF" transform="translate(3333.2734375,607.4765625)"/>
<path d="M0 0 C20.71 4.27 47.75 37.91 58.74 54.58 C73.69 79.33 70.1 114.71 69.14 142.39 C68.91 149.51 68.99 156.58 69.24 163.7 C70.63 204.74 69.12 248.73 39.57 280.43 C12.18 308.33 -28.15 307.89 -64.67 308.26 C-88.83 308.43 -112.96 307.69 -137.1 306.78 C-149.67 306.3 -162.23 305.98 -174.81 305.77 C-175.7 305.75 -176.59 305.74 -177.51 305.72 C-181.99 305.64 -186.47 305.57 -190.95 305.49 C-227.8 304.89 -264.62 303.85 -301.45 302.53 C-300.63 298.69 -299.17 296.61 -296.66 293.56 C-295.85 292.57 -295.03 291.57 -294.18 290.54 C-293.26 289.44 -292.35 288.34 -291.43 287.24 C-290.72 286.39 -290.72 286.39 -289.99 285.52 C-276.79 269.68 -263 254.37 -248.95 239.28 C-248.3 238.58 -247.65 237.88 -246.98 237.16 C-216.59 204.46 -188.05 174.47 -141.32 172.35 C-132.37 172.04 -123.49 172.47 -114.58 173.15 C-113.9 173.2 -113.23 173.25 -112.54 173.3 C-95.24 174.61 -78.58 177.34 -61.45 180.53 C-61.45 161.39 -61.45 142.25 -61.45 122.53 C-81.25 122.53 -101.05 122.53 -121.45 122.53 C-120.32 118 -119.12 116.82 -115.88 113.56 C-115.4 113.08 -114.93 112.59 -114.43 112.09 C-112.82 110.47 -111.2 108.85 -109.58 107.24 C-108.43 106.08 -107.27 104.91 -106.12 103.75 C-102.98 100.59 -99.84 97.44 -96.69 94.29 C-94.06 91.67 -91.44 89.03 -88.81 86.4 C-82.63 80.2 -76.43 74 -70.23 67.81 C-63.83 61.42 -57.45 55.01 -51.07 48.59 C-45.6 43.09 -40.12 37.6 -34.63 32.11 C-31.35 28.83 -28.07 25.55 -24.8 22.26 C-21.73 19.16 -18.65 16.08 -15.55 13.01 C-14.42 11.88 -13.29 10.74 -12.16 9.6 C-10.63 8.05 -9.08 6.51 -7.52 4.98 C-6.66 4.11 -5.8 3.25 -4.91 2.36 C-2.45 0.53 -2.45 0.53 0 0 Z " fill="#FFFFFF" transform="translate(3591.4504795074463,258.4744453430176)"/>
<path d="M0 0 C9.99 0.43 19.98 0.51 29.98 0.58 C47.8 0.71 65.6 1.09 83.41 1.66 C100.66 2.2 117.91 2.62 135.16 2.87 C136.24 2.88 137.31 2.9 138.41 2.91 C143.79 2.99 149.17 3.07 154.55 3.14 C198.86 3.75 243.15 4.78 287.44 6.11 C282.2 28.69 260.72 51.88 246.38 69.36 C245.81 70.06 245.24 70.76 244.65 71.48 C215.53 107.05 181.43 128.84 135.42 133.45 C93.45 137.43 51.15 136.7 9.07 135.48 C7.28 135.43 5.5 135.38 3.72 135.33 C-42.78 134.01 -89.18 131.58 -135.56 128.11 C-140.63 102.64 -143.35 74.81 -128.42 52.18 C-95.38 4.91 -54.3 -2.41 0 0 Z " fill="#FFFFFF" transform="translate(3245.5585060231388,252.89121137931943)"/>
<path d="M0 0 C40.59 0 81.18 0 123 0 C128.02 58.76 128.02 58.76 129.04 80.4 C129.09 81.38 129.09 81.38 129.14 82.39 C129.61 92.24 130.01 102.09 130.36 111.94 C130.41 113.35 130.46 114.76 130.52 116.18 C135.2 243.26 135.2 243.26 90.76 292.27 C82.32 301.37 73.18 309.63 63.75 317.69 C62.69 318.6 62.69 318.6 61.61 319.53 C46.84 332.2 31.58 344.14 15.38 354.93 C13.73 356.03 13.73 356.03 12.05 357.15 C4.53 362 4.53 362 0 362 C0 242.54 0 123.08 0 0 Z " fill="#FFFFFF" transform="translate(2522,259)"/>
<path d="M0 0 C10.69 0.67 21.39 0.99 32.09 1.28 C54.02 1.89 75.91 2.92 97.8 4.25 C97.23 8.04 95.65 9.78 92.97 12.46 C91.73 13.71 91.73 13.71 90.46 15 C89.54 15.91 88.62 16.82 87.67 17.77 C86.69 18.75 85.71 19.74 84.73 20.72 C82.04 23.43 79.33 26.13 76.62 28.84 C73.7 31.75 70.8 34.67 67.89 37.59 C62.18 43.31 56.47 49.02 50.76 54.73 C46.12 59.37 41.48 64.01 36.84 68.65 C36.18 69.31 35.52 69.97 34.84 70.65 C33.5 71.99 32.17 73.33 30.83 74.67 C18.26 87.25 5.69 99.82 -6.89 112.39 C-18.41 123.89 -29.91 135.41 -41.42 146.94 C-53.21 158.76 -65.02 170.57 -76.83 182.38 C-83.47 189.02 -90.1 195.65 -96.73 202.3 C-102.37 207.95 -108.02 213.6 -113.67 219.24 C-116.56 222.12 -119.45 225 -122.32 227.89 C-124.95 230.53 -127.59 233.17 -130.24 235.79 C-131.65 237.2 -133.05 238.62 -134.46 240.04 C-135.3 240.87 -136.13 241.69 -136.99 242.54 C-137.71 243.26 -138.44 243.99 -139.18 244.73 C-141.2 246.25 -141.2 246.25 -145.2 246.25 C-146.6 223.42 -147.63 200.59 -148.26 177.73 C-148.56 167.1 -148.97 156.5 -149.65 145.89 C-152.15 106.27 -154.6 65.53 -126.95 33.82 C-92.16 -4.29 -48.21 -3.09 0 0 Z " fill="#FFFFFF" transform="translate(3255.1998832821846,434.7503392100334)"/>
</svg>
